<svg xmlns="http://www.w3.org/2000/svg" viewBox="0 0 32 32" style="background:#fff;fill:none;stroke-width:0.5">
<path style="stroke:#55f;stroke-width:1" d="M2 26 16 23 30 26M3 18 16 23 29 18M6 11 16 23 26 11M12 6 16 23 20 6"/>
<g style="fill:#55f;stroke:#00a">
<circle cx="2" cy="26" r="1"/>
<circle cx="3" cy="18" r="1"/>
<circle cx="6" cy="11" r="1"/>
<circle cx="12" cy="6" r="1"/>
<circle cx="20" cy="6" r="1"/>
<circle cx="26" cy="11" r="1"/>
<circle cx="29" cy="18" r="1"/>
<circle cx="30" cy="26" r="1"/>
</g>
<circle style="fill:#f5d;stroke:#a08" cy="23" cx="16" r="4"/>
<path style="stroke:#000" d="M1 29.5h30m-3-1 3 1-3 1M16 31v-29.5m-1 3 1-3 1 3M1 4Q16 55 31 4"/>
</svg>
